<svg width="200" height="200" viewBox="0 0 200 200" xmlns="http://www.w3.org/2000/svg">
  <defs>
    <linearGradient id="trophy-silver" x1="0%" y1="0%" x2="100%" y2="100%">
      <stop offset="0%" stop-color="#E5E7EB"/>
      <stop offset="50%" stop-color="#D1D5DB"/>
      <stop offset="100%" stop-color="#9CA3AF"/>
    </linearGradient>
    <linearGradient id="base" x1="0%" y1="0%" x2="100%" y2="0%">
      <stop offset="0%" stop-color="#444"/>
      <stop offset="100%" stop-color="#222"/>
    </linearGradient>
  </defs>

  <!-- Background -->
  <circle cx="100" cy="100" r="96" fill="#0D9488"/>

  <!-- Trophy cup -->
  <path d="
    M70 45 H130
    C130 45 138 45 142 49
    C148 55 150 65 150 75
    C150 90 144 103 132 111
    C126 115 119 118 110 120
    V130 H90 V120
    C81 118 74 115 68 111
    C56 103 50 90 50 75
    C50 65 52 55 58 49
    C62 45 70 45 70 45 Z
  " fill="url(#trophy-silver)"/>

  <!-- Left handle -->
  <path d="
    M50 58
    C40 60 32 68 30 80
    C28 90 30 102 40 110
    C44 113 48 114 52 114
    V106
    C49 106 46 105 43 102
    C37 97 36 89 37 82
    C38 76 42 71 48 69 Z
  " fill="url(#trophy-silver)"/>

  <!-- Right handle -->
  <path d="
    M150 58
    C160 60 168 68 170 80
    C172 90 170 102 160 110
    C156 113 152 114 148 114
    V106
    C151 106 154 105 157 102
    C163 97 164 89 163 82
    C162 76 158 71 152 69 Z
  " fill="url(#trophy-silver)"/>

  <!-- Stem -->
  <rect x="88" y="130" width="24" height="22" rx="4" fill="url(#trophy-silver)"/>

  <!-- Base -->
  <rect x="70" y="152" width="60" height="10" rx="3" fill="url(#base)"/>
  <rect x="60" y="162" width="80" height="16" rx="4" fill="url(#base)"/>

  <!-- Plaque -->
  <rect x="82" y="165" width="36" height="10" rx="2" fill="#D1D5DB"/>

  <!-- Star -->
  <path d="
    M100 66
    L105 78
    L118 79
    L108 87
    L111 99
    L100 92
    L89 99
    L92 87
    L82 79
    L95 78 Z
  " fill="#F3F4F6"/>
</svg>

